<?xml version="1.0" encoding="UTF-8"?>
<svg width="24px" height="24px" viewBox="0 0 24 24" version="1.1" xmlns="http://www.w3.org/2000/svg">
    <g stroke="none" stroke-width="1" fill="none" fill-rule="evenodd">
        <path d="M19,3 L5,3 C3.895,3 3,3.895 3,5 L3,19 C3,20.105 3.895,21 5,21 L19,21 C20.105,21 21,20.105 21,19 L21,5 C21,3.895 20.105,3 19,3 Z M8.339,18.338 L5.667,18.338 L5.667,9.75 L8.339,9.75 L8.339,18.338 Z M7.004,8.574 C6.172,8.574 5.5,7.901 5.5,7.068 C5.5,6.235 6.172,5.562 7.004,5.562 C7.837,5.562 8.508,6.235 8.508,7.068 C8.508,7.901 7.837,8.574 7.004,8.574 Z M18.338,18.338 L15.666,18.338 L15.666,14.162 C15.666,13.167 14.886,12.387 13.891,12.387 C12.896,12.387 12.116,13.167 12.116,14.162 L12.116,18.338 L9.444,18.338 L9.444,9.75 L12.116,9.75 L12.116,10.744 C12.116,10.744 12.886,9.75 14.666,9.75 C16.446,9.75 18.338,10.744 18.338,13.162 L18.338,18.338 Z" fill="#219653"/>
    </g>
</svg> 